<svg xmlns="http://www.w3.org/2000/svg" version="1.1" xmlns:xlink="http://www.w3.org/1999/xlink"  width="200" height="120" viewBox="0 0 1000 600"><rect width="1000" height="600" x="0" y="0" fill="none"/><g><rect width="333.3333333333333" height="333.3333333333333" rx="13.333333333333334" ry="13.333333333333334" y="173.69345740195575" fill="#2cb1bc" transform="matrix(0.825239145047527,0,0,0.825239145047527,0,19.121502976793053)" x="151.47120666503906"/><path d="M339.28356518621024 370.0334763300037L339.28356518621024 265.3601276329996L357.9865910373457 265.3601276329996L357.9865910373457 370.14910554701225Q357.9865910373457 391.3959741723362 347.14635194279265 403.36359813272276Q336.3350201524918 415.36012939736145 318.0366965608863 415.36012939736145L318.0366965608863 415.36012939736145Q299.24694879699433 415.36012939736145 288.78250465771913 403.9995588262699Q278.2891532141918 392.61008095092615 278.2891532141918 372.4905971914357L278.2891532141918 372.4905971914357L296.9054571525709 372.4905971914357Q296.9054571525709 385.1809037581258 302.48456687323414 392.2921006041526Q308.0925838981496 399.4032974501794 318.0366965608863 399.4032974501794L318.0366965608863 399.4032974501794Q327.69173618110153 399.4032974501794 333.47319703152976 391.6850472148576Q339.28356518621024 383.9667969795359 339.28356518621024 370.0334763300037L339.28356518621024 370.0334763300037Z " fill="white" transform="matrix(0.825239145047527,0,0,0.825239145047527,0,19.121502976793053)"/><path d="M614.2547340799454 350.6435349604591L614.2547340799454 271.50175705911295L628.3957808355849 271.50175705911295L628.3957808355849 350.73096028816013Q628.3957808355849 366.7953642532221 620.1996563636145 375.8438856702774Q612.0253882235694 384.91426341925796 598.1903301148834 384.91426341925796L598.1903301148834 384.91426341925796Q583.9837143634679 384.91426341925796 576.0717222065259 376.324724972633Q568.1378737176585 367.71333019408274 568.1378737176585 352.5013231741057L568.1378737176585 352.5013231741057L582.2133514775223 352.5013231741057Q582.2133514775223 362.0962528892924 586.4316235390966 367.47291054290497Q590.6717519325958 372.8495681965175 598.1903301148834 372.8495681965175L598.1903301148834 372.8495681965175Q605.4903449779183 372.8495681965175 609.8616113629691 367.01392757247464Q614.2547340799454 361.1782869484317 614.2547340799454 350.6435349604591L614.2547340799454 350.6435349604591ZM646.9736629720512 347.0372401927921L646.9736629720512 337.9668624438115Q646.9736629720512 319.84796327777565 655.7817647379286 309.26949862595256Q664.5898665038062 298.71289030605465 679.015045574474 298.71289030605465Q693.4620809770672 298.71289030605465 702.2701827429447 309.0072226428495Q711.056428176897 319.3015549796443 711.2968478280748 337.04889650295087L711.2968478280748 337.04889650295087L711.2968478280748 345.81328560497786Q711.2968478280748 363.866615775238 702.5324587260478 374.4013677632106Q693.7680696240208 384.91426341925796 679.1898962298761 384.91426341925796L679.1898962298761 384.91426341925796Q664.7428608272829 384.91426341925796 656.0221843891065 374.70735641016415Q647.3015079509299 364.4785930691451 646.9736629720512 347.0372401927921L646.9736629720512 347.0372401927921ZM660.5901577614846 337.9012934480358L660.5901577614846 345.81328560497786Q660.5901577614846 358.6429524451022 665.6171141042931 365.98667997198766Q670.6440704471016 373.3085511669479 679.1898962298761 373.3085511669479L679.1898962298761 373.3085511669479Q697.1558010724352 373.3085511669479 697.7022093705666 347.3432288397457L697.7022093705666 347.3432288397457L697.7022093705666 337.9668624438115Q697.7022093705666 325.22462093138824 692.6315403639076 317.79346807680173Q687.5608713572485 310.3841715541405 679.015045574474 310.3841715541405L679.015045574474 310.3841715541405Q670.6440704471016 310.3841715541405 665.6171141042931 317.79346807680173Q660.5901577614846 325.22462093138824 660.5901577614846 337.9012934480358L660.5901577614846 337.9012934480358ZM789.06167681813 337.59530480108225L789.06167681813 345.81328560497786Q789.06167681813 365.243564686529 782.0676506020485 375.0789140528935Q775.0736243859672 384.91426341925796 761.7849745754124 384.91426341925796L761.7849745754124 384.91426341925796Q748.5618937606336 384.91426341925796 741.9612815192068 373.54897081812567L741.9612815192068 373.54897081812567L741.2618788975985 383.38432018449015L728.8911950279046 383.38432018449015L728.8911950279046 265.3601277881165L742.420264489637 265.3601277881165L742.420264489637 309.3787802855788Q749.1083020587649 298.71289030605465 761.6319802519356 298.71289030605465L761.6319802519356 298.71289030605465Q775.3140440371449 298.71289030605465 782.1332195978243 308.39524534894235Q788.974251490429 318.07760039183006 789.06167681813 337.59530480108225L789.06167681813 337.59530480108225ZM775.5326073563974 346.425262898885L775.5326073563974 338.0542877715126Q775.5326073563974 323.3012637219659 771.4236169544496 317.02849645941785Q767.3146265525017 310.7775855287951 758.0912544800444 310.7775855287951L758.0912544800444 310.7775855287951Q747.5565024920718 310.7775855287951 742.420264489637 322.1428781299274L742.420264489637 322.1428781299274L742.420264489637 361.72469524656304Q747.4909334962961 372.93699352421856 758.2442488035213 372.93699352421856L758.2442488035213 372.93699352421856Q767.4676208759786 372.93699352421856 771.4673296183001 366.48937560626854Q775.4670383606217 360.01990135639323 775.5326073563974 346.425262898885L775.5326073563974 346.425262898885ZM806.503029694483 300.24283354082246L819.2452712069062 300.24283354082246L819.573116185785 307.936262378512Q827.1791196957736 298.71289030605465 839.6153725612432 298.71289030605465L839.6153725612432 298.71289030605465Q853.5159996657051 298.71289030605465 859.0675079747198 310.7775855287951L859.0675079747198 310.7775855287951Q866.8920748039608 298.71289030605465 880.8801272361236 298.71289030605465L880.8801272361236 298.71289030605465Q903.8511320895659 298.71289030605465 904.3975403876973 327.36654146006316L904.3975403876973 327.36654146006316L904.3975403876973 383.38432018449015L890.8684709259649 383.38432018449015L890.8684709259649 328.6779213755784Q890.8684709259649 319.6075436265979 887.6337338010271 315.1925645776965Q884.4208530080148 310.7775855287951 876.7274241703253 310.7775855287951L876.7274241703253 310.7775855287951Q870.5857948993288 310.7775855287951 866.7390804804841 315.54226588850054Q862.8923660616392 320.306946248206 862.2803887677321 327.6725301070167L862.2803887677321 327.6725301070167L862.2803887677321 383.38432018449015L848.5983249825229 383.38432018449015L848.5983249825229 328.0659440816713Q848.3797616632703 310.7775855287951 834.5447035545843 310.7775855287951L834.5447035545843 310.7775855287951Q824.2503712177895 310.7775855287951 820.0320991562154 321.0719178655899L820.0320991562154 321.0719178655899L820.0320991562154 383.38432018449015L806.503029694483 383.38432018449015L806.503029694483 300.24283354082246ZM981.7689554030978 383.38432018449015L967.6279086474583 383.38432018449015Q966.403954059644 380.6959913576839 965.8575457615127 374.3139424355096L965.8575457615127 374.3139424355096Q958.6449562261787 384.91426341925796 947.4326579485232 384.91426341925796L947.4326579485232 384.91426341925796Q936.1329343431667 384.91426341925796 929.794598084843 378.5759271609342Q923.4562618265192 372.2375909026104 923.4562618265192 360.7193039780014L923.4562618265192 360.7193039780014Q923.4562618265192 348.04263146135384 932.0458002731441 340.58962227484204Q940.6571950516943 333.1366130883303 955.6506387524189 332.98361876485353L955.6506387524189 332.98361876485353L965.6389824422602 332.98361876485353L965.6389824422602 324.13180433512554Q965.6389824422602 316.6787951486138 962.3386763215467 313.5314833513771Q959.0165138689081 310.3841715541405 952.2629073040044 310.3841715541405L952.2629073040044 310.3841715541405Q946.1212780330079 310.3841715541405 942.2745636141632 314.034178985658Q938.4278491953185 317.68418641717545 938.4278491953185 323.3012637219659L938.4278491953185 323.3012637219659L924.8332107378102 323.3012637219659Q924.8332107378102 316.9192147997916 928.592499828954 311.12728683959915Q932.3517889200978 305.3135025474815 938.7338378422719 302.0131964267681Q945.1158867644463 298.71289030605465 952.9623099256125 298.71289030605465L952.9623099256125 298.71289030605465Q965.7045514380359 298.71289030605465 972.3488763433132 305.05122656437845Q978.9932012485906 311.3895628227022 979.1680519039926 323.5198270412184L979.1680519039926 323.5198270412184L979.1680519039926 365.48398433770683Q979.2336208997683 375.0789140528935 981.7689554030978 382.16036559667594L981.7689554030978 382.16036559667594L981.7689554030978 383.38432018449015ZM949.4871531494971 372.54357954956396L949.4871531494971 372.54357954956396Q954.4922531603804 372.54357954956396 959.0165138689081 369.78968172698194Q963.562630909361 367.01392757247464 965.6389824422602 362.8612245066763L965.6389824422602 362.8612245066763L965.6389824422602 343.03753145047057L957.9455536045705 343.03753145047057Q948.2631985616829 343.19052577394734 942.6679775888178 347.3869415035962Q937.0509002840274 351.583357233245 937.0509002840274 359.1019354155325L937.0509002840274 359.1019354155325Q937.0509002840274 366.1615306273897 939.8922234343104 369.35255508847683Q942.7335465845936 372.54357954956396 949.4871531494971 372.54357954956396ZM1060.2987560105369 336.7429078559973L1060.2987560105369 345.81328560497786Q1060.2987560105369 365.5495533334826 1053.1954481348291 375.2319083763703Q1046.0921402591216 384.91426341925796 1033.0876227635952 384.91426341925796L1033.0876227635952 384.91426341925796Q1020.5639445704244 384.91426341925796 1013.8103380055209 375.4723280275481L1013.8103380055209 375.4723280275481L1013.8103380055209 415.36013379113734L1000.2812685437882 415.36013379113734L1000.2812685437882 300.24283354082246L1012.5863834177064 300.24283354082246L1013.2639297073894 309.46620561327984Q1020.1049615999941 298.71289030605465 1032.8690594443426 298.71289030605465L1032.8690594443426 298.71289030605465Q1046.5511232295519 298.71289030605465 1053.3047297944554 308.2422510254656Q1060.0583363593591 317.7716117448765 1060.2987560105369 336.7429078559973L1060.2987560105369 336.7429078559973ZM1046.7696865488044 346.33783757118397L1046.7696865488044 338.0542877715126Q1046.7696865488044 324.06623533934976 1042.4639891595293 317.4219104340724Q1038.1801481021794 310.7775855287951 1028.6507873827686 310.7775855287951L1028.6507873827686 310.7775855287951Q1018.8810070121799 310.7775855287951 1013.8103380055209 320.5255095674585L1013.8103380055209 320.5255095674585L1013.8103380055209 363.80104677946224Q1018.8154380164041 373.3085511669479 1028.8037817062454 373.3085511669479L1028.8037817062454 373.3085511669479Q1038.0052974467774 373.3085511669479 1042.354707499903 366.66422626167054Q1046.7041175530287 360.01990135639323 1046.7696865488044 346.33783757118397L1046.7696865488044 346.33783757118397Z " fill="#2cb1bc" transform="matrix(0.825239145047527,0,0,0.825239145047527,0,19.121502976793053)"/></g></svg>